<svg width="126" height="128" viewBox="0 0 126 128" fill="none" xmlns="http://www.w3.org/2000/svg">
<path d="M73.1187 50.5532V50.083C73.1187 46.4386 72.0104 44.1658 69.7938 42.324C67.6293 40.5868 64.5912 39.7116 60.7056 39.7116C59.819 39.7116 54.3035 39.8814 52.5693 39.9598V60.807C53.4429 60.8854 54.5252 60.9115 55.8291 60.9115C57.5372 60.9115 59.0367 60.8331 60.3145 60.6895C63.9524 60.3498 66.847 59.4877 68.9984 58.077C71.7496 56.3398 73.1187 53.8188 73.1187 50.5402V50.5532Z" fill="white"/>
<path d="M63.0062 22.2706C39.9924 22.2706 21.3467 40.9495 21.3467 64.0042C21.3467 87.0589 39.9924 105.738 63.0062 105.738C86.02 105.738 104.666 87.0589 104.666 64.0042C104.666 40.9495 86.02 22.2706 63.0062 22.2706ZM82.1734 86.6932C72.6941 83.4277 71.7423 66.6428 62.6672 64.2785C61.9109 64.0826 61.1155 64.0042 60.5679 64.0042C58.8728 64.0042 52.575 64.0303 52.575 64.0303V70.5353C52.575 74.2058 52.6793 77.8501 52.901 81.4422C53.0183 83.5975 53.1357 85.2564 53.2661 86.445H44.0345C44.0345 86.445 44.1127 85.8964 44.1779 84.8123C44.3213 81.9386 44.4387 78.5947 44.543 74.7674C44.5952 71.9199 44.6212 69.7646 44.6212 68.3147V52.9144C44.6212 43.3137 43.9302 36.4169 43.9302 36.4169C47.7376 36.4169 51.1798 36.3647 54.244 36.234C57.256 36.1165 59.7986 36.0512 61.8718 36.0512C68.626 36.0512 73.7373 37.3051 76.984 40.0351C79.8786 42.53 81.2216 45.678 81.2216 50.0538C81.2216 53.1234 80.1003 56.1147 77.8576 58.2307C75.7061 60.2554 72.7854 61.7445 68.952 62.6588C70.8035 62.8286 72.3942 63.325 73.7372 64.3177C79.8916 68.8764 80.4132 80.6846 88.9928 85.5046C87.3369 87.3463 83.8685 87.2679 82.1604 86.6801L82.1734 86.6932Z" fill="white"/>
<path d="M108.939 78.8651C108.378 80.6024 107.713 82.3005 106.957 83.9332C106.448 85.0305 106.331 86.2583 106.683 87.4208L111.651 104.245C112.368 103.383 113.059 102.495 113.724 101.593C114.611 100.392 114.845 98.8372 114.428 97.4134L108.952 78.8651H108.939Z" fill="white"/>
<path d="M102.355 91.9669C101.794 92.7506 101.207 93.5213 100.607 94.2658C99.5512 95.572 99.1339 97.2962 99.6164 98.9159L103.58 112.37C104.089 111.939 104.584 111.508 105.08 111.064C106.475 109.81 107.049 107.877 106.514 106.074L102.355 91.9538V91.9669Z" fill="white"/>
<path d="M94.4677 100.655C93.9852 101.073 93.5028 101.478 92.9943 101.87C91.5339 103.032 90.9472 104.978 91.4818 106.768L94.9371 118.498C95.4847 118.184 96.0193 117.858 96.5409 117.518C97.9752 116.617 98.6532 114.867 98.1707 113.247L94.4546 100.655H94.4677Z" fill="white"/>
<path d="M85.7796 106.652C85.4015 106.848 85.0234 107.043 84.6452 107.239C82.885 108.128 82.0114 110.139 82.572 112.02L85.7926 122.94C86.2229 122.77 86.6402 122.601 87.0574 122.431C88.7655 121.725 89.6783 119.871 89.1567 118.094L85.7796 106.639V106.652Z" fill="white"/>
<path d="M76.4413 110.442C76.1284 110.534 75.8024 110.625 75.4764 110.717C73.5727 111.226 72.4644 113.186 73.0121 115.08L76.1805 125.843C76.5717 125.764 76.9629 125.673 77.3671 125.581C79.1534 125.15 80.2226 123.309 79.7011 121.532L76.4283 110.442H76.4413Z" fill="white"/>
<path d="M125.234 63.9989L125.743 62.2486C125.939 61.5824 126.03 60.8901 125.991 60.1978C125.782 56.7364 125.3 53.3533 124.556 50.0616L120.449 63.9859L124.556 77.9101C125.3 74.6185 125.782 71.2354 125.991 67.7739C126.03 67.0816 125.939 66.3893 125.743 65.7231L125.234 63.9728V63.9989Z" fill="white"/>
<path d="M106.955 44.0624C107.711 45.7082 108.376 47.3932 108.937 49.1305L114.413 30.5822C114.831 29.1584 114.596 27.604 113.722 26.4023C113.057 25.501 112.366 24.6128 111.649 23.7507L106.681 40.5747C106.342 41.7373 106.46 42.9651 106.955 44.0624Z" fill="white"/>
<path d="M102.355 36.0317L106.514 21.9115C107.049 20.1089 106.475 18.1757 105.08 16.9217C104.584 16.4776 104.089 16.0465 103.58 15.6155L99.6164 29.0695C99.1339 30.6892 99.5512 32.4134 100.607 33.7196C101.207 34.4642 101.794 35.2349 102.355 36.0186V36.0317Z" fill="white"/>
<path d="M92.989 26.1405C93.4845 26.5324 93.98 26.9504 94.4624 27.3553L98.1785 14.7634C98.661 13.1306 97.9829 11.3933 96.5487 10.4921C96.0141 10.1524 95.4795 9.82588 94.9449 9.51239L91.4896 21.2422C90.955 23.0317 91.5417 24.978 93.0021 26.1405H92.989Z" fill="white"/>
<path d="M84.6881 20.7955C85.0531 20.9784 85.4182 21.1743 85.7703 21.3572L89.1474 9.91473C89.6689 8.15134 88.7692 6.28345 87.0742 5.57809C86.6439 5.40828 86.2266 5.22541 85.7963 5.06866L82.5757 15.9886C82.0151 17.8957 82.9278 19.8942 84.6881 20.7955Z" fill="white"/>
<path d="M75.4301 17.2952C75.7691 17.3867 76.1081 17.4781 76.4471 17.5826L79.7069 6.50589C80.2284 4.7425 79.1723 2.87461 77.3859 2.45662C76.9948 2.36519 76.5905 2.27375 76.1994 2.18231L73.0309 12.9455C72.4833 14.8134 73.5655 16.7858 75.4431 17.2952H75.4301Z" fill="white"/>
<path d="M114.902 64.0038L121.096 42.9999C121.5 41.6284 121.448 40.1393 120.874 38.82C120.235 37.357 119.557 35.9202 118.814 34.5225L111.251 60.1897C111.173 60.464 111.134 60.7514 111.16 61.0387C111.225 62.0315 111.303 63.0111 111.303 64.0169C111.303 65.0227 111.238 66.0024 111.16 66.9951C111.134 67.2825 111.16 67.5698 111.251 67.8441L118.814 93.5113C119.557 92.1136 120.248 90.6768 120.874 89.2138C121.448 87.8946 121.5 86.4055 121.096 85.034L114.902 64.03V64.0038Z" fill="white"/>
<path d="M19.0438 83.9438C18.2875 82.298 17.6225 80.6129 17.0618 78.8757L11.5855 97.424C11.1682 98.8477 11.4029 100.402 12.2765 101.604C12.9415 102.505 13.6326 103.393 14.3497 104.255L19.3176 87.4314C19.6566 86.2689 19.5392 85.041 19.0438 83.9438Z" fill="white"/>
<path d="M23.6481 91.9714L19.4886 106.092C18.954 107.894 19.5278 109.827 20.9229 111.081C21.4184 111.525 21.9139 111.957 22.4224 112.388L26.3863 98.9335C26.8687 97.3138 26.4514 95.5896 25.3953 94.2834C24.7955 93.5388 24.2087 92.7682 23.6481 91.9844V91.9714Z" fill="white"/>
<path d="M33.0069 101.87C32.5114 101.478 32.0159 101.06 31.5335 100.655L27.8174 113.247C27.3349 114.88 28.0129 116.617 29.4472 117.518C29.9818 117.858 30.5164 118.184 31.051 118.498L34.5063 106.768C35.0409 104.978 34.4542 103.032 32.9938 101.87H33.0069Z" fill="white"/>
<path d="M41.3043 107.218C40.9392 107.035 40.5741 106.839 40.222 106.656L36.8449 118.099C36.3234 119.862 37.2231 121.73 38.9181 122.435C39.3484 122.605 39.7657 122.788 40.1959 122.945L43.4166 112.025C43.9772 110.118 43.0645 108.119 41.3043 107.218Z" fill="white"/>
<path d="M50.5704 110.73C50.2313 110.638 49.8923 110.547 49.5533 110.442L46.2936 121.519C45.772 123.283 46.8282 125.15 48.6145 125.568C49.0057 125.66 49.4099 125.751 49.801 125.843L52.9695 115.08C53.5172 113.212 52.4349 111.239 50.5573 110.73H50.5704Z" fill="white"/>
<path d="M14.8609 66.981C14.7957 66.0014 14.7175 65.0086 14.7175 64.0029C14.7175 62.9971 14.7827 62.0174 14.8609 61.0247C14.887 60.7373 14.8609 60.45 14.7696 60.1756L7.20703 34.5085C6.46381 35.9061 5.77274 37.343 5.14687 38.8059C4.57316 40.1252 4.521 41.6143 4.92521 42.9858L11.1187 63.9898L4.92521 84.9938C4.521 86.3653 4.57316 87.8544 5.14687 89.1737C5.78578 90.6366 6.46381 92.0735 7.20703 93.4711L14.7696 67.804C14.8479 67.5297 14.887 67.2423 14.8609 66.9549V66.981Z" fill="white"/>
<path d="M17.0588 49.1445C17.6195 47.4072 18.2845 45.7092 19.0407 44.0764C19.5493 42.9792 19.6666 41.7513 19.3146 40.5888L14.3467 23.7647C13.6296 24.6268 12.9385 25.515 12.2735 26.4163C11.3869 27.618 11.1522 29.1724 11.5694 30.5962L17.0458 49.1445H17.0588Z" fill="white"/>
<path d="M23.6481 36.0327C24.2087 35.249 24.7955 34.4783 25.3953 33.7338C26.4514 32.4275 26.8687 30.7033 26.3863 29.0836L22.4224 15.6296C21.9139 16.0606 21.4184 16.4917 20.9229 16.9358C19.5278 18.1898 18.954 20.123 19.4886 21.9255L23.6481 36.0458V36.0327Z" fill="white"/>
<path d="M31.538 27.3553C32.0204 26.9373 32.5029 26.5324 33.0114 26.1405C34.4718 24.978 35.0585 23.0317 34.5239 21.2422L31.0686 9.51239C30.534 9.82588 29.9864 10.1524 29.4648 10.4921C28.0305 11.3933 27.3525 13.1437 27.8349 14.7634L31.551 27.3553H31.538Z" fill="white"/>
<path d="M40.2207 21.3572C40.5988 21.1613 40.9769 20.9653 41.3551 20.7694C43.1153 19.8812 43.9889 17.8696 43.4283 15.9886L40.2076 5.06866C39.7774 5.23847 39.3601 5.40828 38.9429 5.57809C37.2348 6.28345 36.322 8.13827 36.8436 9.91473L40.2207 21.3703V21.3572Z" fill="white"/>
<path d="M49.5523 17.5826C49.8652 17.4912 50.1912 17.3997 50.5172 17.3083C52.4208 16.7989 53.5292 14.8396 52.9815 12.9455L49.8131 2.18231C49.4219 2.26069 49.0307 2.35212 48.6265 2.44356C46.8402 2.87461 45.771 4.71637 46.2925 6.49283L49.5653 17.5826H49.5523Z" fill="white"/>
<path d="M5.55045 64.0175L1.44317 50.0933C0.699946 53.3849 0.217516 56.768 0.0088924 60.2295C-0.0302245 60.9218 0.0610315 61.6141 0.256616 62.2803L0.765135 64.0306L0.256616 65.7809C0.0610315 66.4471 -0.0302245 67.1394 0.0088924 67.8317C0.217516 71.2932 0.699946 74.6763 1.44317 77.9679L5.55045 64.0437V64.0175Z" fill="white"/>
<path d="M60.0459 13.6329C60.2154 14.8084 61.1542 15.6706 62.2755 15.6706H63.762C64.8703 15.6706 65.8221 14.8084 65.9916 13.6329L67.2825 3.9146C67.5433 2.12508 66.2524 0.505371 64.5443 0.505371H61.4932C59.7981 0.505371 58.4942 2.12508 58.755 3.9146L60.0459 13.6329Z" fill="white"/>
<path d="M65.9577 114.372C65.7882 113.196 64.8494 112.334 63.728 112.334H62.2416C61.1333 112.334 60.1814 113.196 60.0119 114.372L58.7211 124.09C58.4603 125.879 59.7511 127.499 61.4592 127.499H64.5104C66.2054 127.499 67.5093 125.879 67.2486 124.09L65.9577 114.372Z" fill="white"/>
</svg>
