<svg width="60" height="51" viewBox="0 0 60 51" fill="none" xmlns="http://www.w3.org/2000/svg">
<path d="M18.5957 38C14.7051 38 11.8301 40.5321 11.8301 44.5C11.8301 48.4679 14.7657 51 18.5957 51C22.4258 51 25.3614 48.5419 25.3614 44.5C25.3614 40.4581 22.4863 38 18.5957 38ZM18.5957 50.008C15.9191 50.008 13.8678 47.9232 13.8678 44.5C13.8678 41.0768 15.8753 38.992 18.5957 38.992C21.3161 38.992 23.3236 41.1374 23.3236 44.5C23.3236 47.8627 21.2724 50.008 18.5957 50.008Z" fill="#00534C"/>
<path d="M33.1591 46.0063C33.1591 47.4052 33.1894 48.9789 33.1894 48.9789C33.1894 49.6716 33.2902 50.7006 33.297 50.7141H31.1079C31.1079 50.7141 31.2323 49.675 31.2323 49.1571C31.2323 48.7536 31.3164 47.3077 31.2424 46.2417C30.4185 44.594 27.2677 39.9468 27.2677 39.9468C26.7095 39.1734 26.0303 38.2891 26.0303 38.2891C26.0303 38.2891 26.844 38.3193 27.3854 38.3193C27.9268 38.3193 28.7675 38.2891 28.7675 38.2891C28.7675 38.2924 32.6547 44.9639 32.6547 44.9639C32.6547 44.9639 37.0598 38.2958 37.0497 38.2891L37.7188 38.3025L38.5427 38.2891C38.5427 38.2891 37.8836 39.1028 37.6919 39.3886C36.3267 41.4298 34.3125 44.1266 33.1591 46.0063Z" fill="#00534C"/>
<path d="M43.8994 38.2852L47.2654 46.5236C47.595 47.3408 48.0355 48.3294 48.5903 49.4962C48.7988 49.9401 48.9972 50.347 49.1855 50.7101H46.5559C46.5559 50.7101 46.5391 50.6261 46.4853 50.4579C46.0751 49.1465 45.5404 47.6838 45.5404 47.6838C45.4496 47.6703 45.184 47.6501 44.7636 47.6199C44.4038 47.6031 43.8927 47.593 43.2067 47.593H41.4615C40.8865 47.593 40.4359 47.6031 40.1097 47.6199L39.7028 47.6468L39.4237 47.6636L38.6302 49.5736L38.3242 50.2932L38.1628 50.7068H36.7773C36.7773 50.7068 36.8715 50.5252 36.8984 50.4714C37.5003 49.2743 38.2468 47.6905 38.5764 46.9642L39.037 45.9386L42.3762 38.2852C42.3762 38.2852 42.9444 38.302 43.1294 38.302C43.3278 38.302 43.8994 38.2852 43.8994 38.2852ZM39.8037 46.6582C40.1232 46.675 40.4023 46.6851 40.6511 46.6851H43.2168C44.2861 46.6851 44.9419 46.675 45.1873 46.6582L42.5577 40.0842L39.8037 46.6582Z" fill="#00534C"/>
<path d="M51.6003 42.3741C51.6003 41.557 51.5768 40.6289 51.5297 39.5831C51.5163 39.3309 51.4961 38.9005 51.4658 38.2852C51.8727 38.2986 52.3267 38.3087 52.5251 38.3087C52.8378 38.3087 53.1438 38.2986 53.7457 38.2852C53.6986 39.1561 53.6616 40.027 53.6381 40.8979C53.6246 41.5469 53.6213 42.0379 53.6213 42.3741V46.7422C53.6213 47.1794 53.628 47.7544 53.6381 48.4605L53.665 49.4424L53.6751 49.7854C55.3867 49.7552 56.6746 49.7148 57.5388 49.661C58.0297 49.6375 58.6014 49.6038 59.2504 49.5635V50.7169H51.4725C51.5028 50.1284 51.523 49.7148 51.5364 49.4761C51.5835 48.4673 51.6071 47.5593 51.6071 46.7489V42.3809L51.6003 42.3741Z" fill="#00534C"/>
<path d="M7.42137 45.2238C7.08847 44.9783 6.69168 44.8539 6.23099 44.8102C7.18599 44.5815 7.91568 44.215 8.45034 43.7106C9.00854 43.1827 9.28764 42.4395 9.28764 41.6762C9.28764 40.5901 8.95138 39.8066 8.23177 39.1878C7.42137 38.5086 6.15029 38.1992 4.46896 38.1992C3.95112 38.1992 3.31893 38.2127 2.56906 38.2429C1.80574 38.2732 0.95163 38.2866 0 38.2866C0 38.2866 0.171498 40.0016 0.171498 42.3857V46.2124C0.171498 46.5722 0.164772 47.1069 0.154684 47.8164C0.131146 48.7647 0.10088 49.5986 0.0638912 50.3115C0.0470779 50.5805 0.0336271 50.7184 0.0269018 50.7184H2.32359C2.29333 50.4258 2.26306 50.0088 2.2328 49.4742C2.179 48.5797 2.1521 47.6752 2.1521 46.7639V45.1465C2.1521 45.1465 3.71909 45.1397 4.14279 45.1397C4.27729 45.1397 4.47569 45.1599 4.664 45.2103C6.92034 45.7988 7.16245 49.9719 9.51967 50.7823C9.94336 50.9268 10.8076 50.947 11.2212 50.4897C9.08588 49.2892 8.95138 46.357 7.42137 45.2238ZM4.0789 44.3226C3.75944 44.3596 3.38956 44.3764 2.9625 44.3764C2.63632 44.3764 2.36731 44.3663 2.1521 44.3495V39.171C2.58252 39.1508 3.95784 39.1071 4.17978 39.1071C5.14822 39.1071 5.90145 39.3223 6.43948 39.7561C6.99095 40.2134 7.26669 40.775 7.26669 41.6829V41.8006C7.26669 42.6177 6.9237 43.2432 6.24108 43.6736C5.70642 44.0233 4.98681 44.2385 4.0789 44.3226Z" fill="#00534C"/>
<path d="M32.6926 12.8119V12.6916C32.6926 11.7588 32.4085 11.1771 31.8401 10.7057C31.2852 10.2611 30.5062 10.0371 29.5099 10.0371C29.2826 10.0371 27.8685 10.0806 27.4238 10.1006V15.4363C27.6478 15.4563 27.9253 15.463 28.2596 15.463C28.6976 15.463 29.082 15.443 29.4097 15.4062C30.3424 15.3193 31.0846 15.0986 31.6362 14.7376C32.3416 14.2929 32.6926 13.6477 32.6926 12.8086V12.8119Z" fill="#00534C"/>
<path d="M30.0993 5.57031C24.1987 5.57031 19.418 10.351 19.418 16.2517C19.418 22.1523 24.1987 26.933 30.0993 26.933C36 26.933 40.7807 22.1523 40.7807 16.2517C40.7807 10.351 36 5.57031 30.0993 5.57031ZM35.0137 22.0587C32.5833 21.2229 32.3392 16.927 30.0124 16.3219C29.8185 16.2717 29.6146 16.2517 29.4742 16.2517C29.0395 16.2517 27.4248 16.2584 27.4248 16.2584V17.9232C27.4248 18.8627 27.4516 19.7954 27.5084 20.7148C27.5385 21.2664 27.5686 21.691 27.602 21.9952H25.235C25.235 21.9952 25.2551 21.8548 25.2718 21.5773C25.3086 20.8418 25.3387 19.986 25.3654 19.0064C25.3788 18.2776 25.3855 17.726 25.3855 17.3549V13.4133C25.3855 10.9561 25.2083 9.19094 25.2083 9.19094C26.1845 9.19094 27.0671 9.17757 27.8527 9.14414C28.625 9.11405 29.2769 9.09733 29.8085 9.09733C31.5402 9.09733 32.8507 9.41827 33.6832 10.117C34.4254 10.7555 34.7697 11.5612 34.7697 12.6812C34.7697 13.4668 34.4822 14.2324 33.9072 14.774C33.3555 15.2922 32.6067 15.6733 31.6238 15.9073C32.0985 15.9508 32.5064 16.0778 32.8507 16.3319C34.4287 17.4987 34.5624 20.5209 36.7622 21.7545C36.3376 22.2259 35.4484 22.2058 35.0104 22.0554L35.0137 22.0587Z" fill="#00534C"/>
<path d="M41.8773 20.0547C41.7336 20.4993 41.5631 20.9339 41.3692 21.3518C41.2388 21.6327 41.2087 21.9469 41.299 22.2444L42.5727 26.5504C42.7566 26.3298 42.9338 26.1024 43.1043 25.8718C43.3316 25.5642 43.3918 25.1664 43.2848 24.802L41.8807 20.0547H41.8773Z" fill="#00534C"/>
<path d="M40.1887 23.4096C40.045 23.6102 39.8945 23.8074 39.7407 23.998C39.47 24.3323 39.363 24.7736 39.4867 25.1881L40.503 28.6316C40.6334 28.5213 40.7604 28.4109 40.8874 28.2973C41.2452 27.9763 41.3923 27.4815 41.2552 27.0202L40.1887 23.4062V23.4096Z" fill="#00534C"/>
<path d="M38.1661 25.6328C38.0424 25.7398 37.9187 25.8434 37.7883 25.9437C37.4139 26.2413 37.2634 26.7394 37.4005 27.1974L38.2864 30.1995C38.4268 30.1193 38.5639 30.0357 38.6976 29.9488C39.0654 29.7181 39.2392 29.2702 39.1155 28.8556L38.1627 25.6328H38.1661Z" fill="#00534C"/>
<path d="M35.9389 27.1655C35.842 27.2156 35.745 27.2657 35.6481 27.3159C35.1967 27.5432 34.9727 28.0581 35.1165 28.5395L35.9422 31.3344C36.0526 31.2909 36.1596 31.2474 36.2665 31.204C36.7045 31.0234 36.9385 30.5487 36.8048 30.094L35.9389 27.1621V27.1655Z" fill="#00534C"/>
<path d="M33.545 28.1367C33.4648 28.1601 33.3812 28.1835 33.2976 28.2069C32.8095 28.3373 32.5254 28.8388 32.6658 29.3235L33.4782 32.0783C33.5785 32.0582 33.6787 32.0348 33.7824 32.0114C34.2404 31.9011 34.5145 31.4297 34.3808 30.9751L33.5417 28.1367H33.545Z" fill="#00534C"/>
<path d="M46.0551 16.2507L46.1854 15.8027C46.2356 15.6322 46.259 15.4551 46.249 15.2779C46.1955 14.3919 46.0718 13.5261 45.8812 12.6836L44.8281 16.2474L45.8812 19.8112C46.0718 18.9687 46.1955 18.1028 46.249 17.2169C46.259 17.0397 46.2356 16.8625 46.1854 16.692L46.0551 16.244V16.2507Z" fill="#00534C"/>
<path d="M41.3687 11.1498C41.5626 11.571 41.7331 12.0023 41.8769 12.4469L43.281 7.69964C43.388 7.33524 43.3278 6.9374 43.1038 6.62983C42.9333 6.39915 42.7561 6.17182 42.5723 5.95117L41.2985 10.2571C41.2116 10.5547 41.2417 10.8689 41.3687 11.1498Z" fill="#00534C"/>
<path d="M40.1887 9.09253L41.2552 5.47859C41.3923 5.01723 41.2452 4.52244 40.8874 4.2015C40.7604 4.08784 40.6334 3.97751 40.503 3.86719L39.4867 7.31063C39.363 7.72518 39.47 8.16647 39.7407 8.50079C39.8945 8.69135 40.045 8.88859 40.1887 9.08918V9.09253Z" fill="#00534C"/>
<path d="M37.7879 6.55856C37.9149 6.65885 38.042 6.76583 38.1657 6.86947L39.1184 3.64668C39.2421 3.22879 39.0683 2.78415 38.7006 2.55347C38.5635 2.46655 38.4264 2.38297 38.2894 2.30273L37.4034 5.30488C37.2664 5.76289 37.4168 6.26102 37.7912 6.55856H37.7879Z" fill="#00534C"/>
<path d="M35.659 5.19116C35.7526 5.23797 35.8462 5.28812 35.9365 5.33492L36.8023 2.40632C36.9361 1.955 36.7054 1.47693 36.2708 1.2964C36.1605 1.25294 36.0535 1.20613 35.9431 1.16602L35.1174 3.96088C34.9736 4.44898 35.2077 4.96049 35.659 5.19116Z" fill="#00534C"/>
<path d="M33.2854 4.29575C33.3723 4.31916 33.4592 4.34256 33.5462 4.3693L34.3819 1.53432C34.5157 1.08299 34.2449 0.604922 33.7869 0.497941C33.6866 0.474539 33.5829 0.451136 33.4826 0.427734L32.6703 3.18249C32.5298 3.66056 32.8073 4.16537 33.2887 4.29575H33.2854Z" fill="#00534C"/>
<path d="M43.4063 16.2506L44.9943 10.8748C45.0979 10.5238 45.0845 10.1426 44.9374 9.80497C44.7736 9.43054 44.5998 9.06279 44.4092 8.70508L42.4702 15.2744C42.4501 15.3446 42.4401 15.4181 42.4468 15.4917C42.4635 15.7457 42.4836 15.9965 42.4836 16.2539C42.4836 16.5113 42.4669 16.7621 42.4468 17.0161C42.4401 17.0897 42.4468 17.1632 42.4702 17.2334L44.4092 23.8027C44.5998 23.445 44.777 23.0773 44.9374 22.7028C45.0845 22.3652 45.0979 21.9841 44.9943 21.633L43.4063 16.2572V16.2506Z" fill="#00534C"/>
<path d="M18.828 21.3557C18.6341 20.9345 18.4636 20.5032 18.3198 20.0586L16.9157 24.8059C16.8087 25.1703 16.8689 25.5681 17.0929 25.8757C17.2634 26.1063 17.4406 26.3337 17.6245 26.5543L18.8982 22.2484C18.9851 21.9508 18.955 21.6366 18.828 21.3557Z" fill="#00534C"/>
<path d="M20.0087 23.4082L18.9423 27.0221C18.8052 27.4835 18.9523 27.9783 19.31 28.2992C19.4371 28.4129 19.5641 28.5232 19.6945 28.6335L20.7108 25.1901C20.8345 24.7756 20.7275 24.3343 20.4567 23.9999C20.3029 23.8094 20.1525 23.6121 20.0087 23.4115V23.4082Z" fill="#00534C"/>
<path d="M22.4082 25.9437C22.2812 25.8434 22.1541 25.7365 22.0304 25.6328L21.0776 28.8556C20.9539 29.2735 21.1278 29.7181 21.4955 29.9488C21.6326 30.0357 21.7697 30.1193 21.9067 30.1995L22.7927 27.1974C22.9297 26.7394 22.7793 26.2413 22.4049 25.9437H22.4082Z" fill="#00534C"/>
<path d="M24.5357 27.3137C24.4421 27.2669 24.3485 27.2167 24.2582 27.1699L23.3924 30.0985C23.2586 30.5498 23.4893 31.0279 23.9239 31.2084C24.0342 31.2519 24.1412 31.2987 24.2515 31.3388L25.0773 28.544C25.2211 28.0559 24.987 27.5444 24.5357 27.3137Z" fill="#00534C"/>
<path d="M26.912 28.2103C26.8251 28.1869 26.7382 28.1635 26.6512 28.1367L25.8155 30.9717C25.6817 31.423 25.9525 31.9011 26.4105 32.0081C26.5108 32.0315 26.6145 32.0549 26.7148 32.0783L27.5271 29.3235C27.6676 28.8455 27.3901 28.3407 26.9087 28.2103H26.912Z" fill="#00534C"/>
<path d="M17.7556 17.0142C17.7388 16.7634 17.7188 16.5094 17.7188 16.2519C17.7188 15.9945 17.7355 15.7438 17.7556 15.4897C17.7623 15.4162 17.7556 15.3426 17.7322 15.2724L15.7931 8.70312C15.6026 9.06084 15.4254 9.42859 15.2649 9.80302C15.1178 10.1407 15.1044 10.5218 15.2081 10.8728L16.7961 16.2486L15.2081 21.6244C15.1044 21.9754 15.1178 22.3565 15.2649 22.6942C15.4287 23.0686 15.6026 23.4364 15.7931 23.7941L17.7322 17.2248C17.7522 17.1546 17.7623 17.081 17.7556 17.0075V17.0142Z" fill="#00534C"/>
<path d="M18.3192 12.4508C18.4629 12.0062 18.6334 11.5716 18.8273 11.1537C18.9577 10.8728 18.9878 10.5586 18.8975 10.261L17.6238 5.95508C17.4399 6.17573 17.2627 6.40306 17.0922 6.63374C16.8649 6.94131 16.8047 7.33914 16.9117 7.70354L18.3158 12.4508H18.3192Z" fill="#00534C"/>
<path d="M20.0087 9.09309C20.1525 8.8925 20.3029 8.69525 20.4567 8.50469C20.7275 8.17038 20.8345 7.72909 20.7108 7.31454L19.6945 3.87109C19.5641 3.98142 19.4371 4.09174 19.31 4.20541C18.9523 4.52635 18.8052 5.02114 18.9423 5.48249L20.0087 9.09643V9.09309Z" fill="#00534C"/>
<path d="M22.031 6.87338C22.1547 6.7664 22.2784 6.66276 22.4088 6.56247C22.7832 6.26493 22.9336 5.7668 22.7966 5.30879L21.9106 2.30664C21.7736 2.38688 21.6332 2.47045 21.4994 2.55738C21.1317 2.78805 20.9578 3.23603 21.0815 3.65058L22.0343 6.87338H22.031Z" fill="#00534C"/>
<path d="M24.2579 5.33492C24.3548 5.28477 24.4518 5.23462 24.5487 5.18448C25.0001 4.95714 25.2241 4.4423 25.0803 3.96088L24.2545 1.16602C24.1442 1.20948 24.0372 1.25294 23.9303 1.2964C23.4923 1.47693 23.2583 1.95165 23.392 2.40632L24.2579 5.33826V5.33492Z" fill="#00534C"/>
<path d="M26.651 4.3693C26.7312 4.3459 26.8148 4.3225 26.8984 4.2991C27.3865 4.16872 27.6706 3.66724 27.5302 3.18249L26.7178 0.427734C26.6175 0.447793 26.5173 0.471196 26.4136 0.494598C25.9556 0.604921 25.6815 1.0763 25.8152 1.53097L26.6543 4.3693H26.651Z" fill="#00534C"/>
<path d="M15.3684 16.2552L14.3153 12.6914C14.1248 13.5339 14.0011 14.3998 13.9476 15.2857C13.9376 15.4629 13.961 15.6401 14.0111 15.8106L14.1415 16.2585L14.0111 16.7065C13.961 16.877 13.9376 17.0542 13.9476 17.2314C14.0011 18.1173 14.1248 18.9832 14.3153 19.8257L15.3684 16.2619V16.2552Z" fill="#00534C"/>
<path d="M29.3405 3.35986C29.384 3.66074 29.6247 3.88139 29.9122 3.88139H30.2933C30.5775 3.88139 30.8215 3.66074 30.865 3.35986L31.1959 0.872561C31.2628 0.41455 30.9318 0 30.4939 0H29.7116C29.277 0 28.9427 0.41455 29.0095 0.872561L29.3405 3.35986Z" fill="#00534C"/>
<path d="M30.8572 29.1426C30.8138 28.8417 30.5731 28.6211 30.2855 28.6211H29.9044C29.6203 28.6211 29.3762 28.8417 29.3327 29.1426L29.0018 31.6299C28.9349 32.0879 29.2659 32.5025 29.7038 32.5025H30.4861C30.9207 32.5025 31.2551 32.0879 31.1882 31.6299L30.8572 29.1426Z" fill="#00534C"/>
</svg>
